# Made using Asset Forge (www.assetforge.io) version 1.3 

mtllib Arrow.mtl 

v 0.006698728 0.02499986 -0.3999999
v 0.006698728 0.025 0.4000001
v 0.001703702 0.01294082 -0.3999999
v 0.001703702 0.01294095 0.4000001
v -7.450581E-09 -1.192093E-07 -0.3999999
v -7.450581E-09 0 0.4000001
v 0.001703702 -0.01294106 -0.3999999
v 0.001703702 -0.01294095 0.4000001
v 0.006698728 -0.0250001 -0.3999999
v 0.006698728 -0.025 0.4000001
v 0.01464466 0.03535534 0.4000001
v 0.01464466 0.03535521 -0.3999999
v 0.01464466 -0.03535545 -0.3999999
v 0.01464466 -0.03535534 0.4000001
v 0.025 -0.04330128 0.4000001
v 0.025 -0.0433014 -0.3999999
v 0.03705905 -0.0482963 0.4000001
v 0.03705905 -0.04829639 -0.3999999
v 0.05000001 -0.05000001 0.4000001
v 0.05000001 -0.05000013 -0.3999999
v 0.06294096 -0.0482963 0.4000001
v 0.06294096 -0.04829639 -0.3999999
v 0.025 0.04330117 -0.3999999
v 0.025 0.04330128 0.4000001
v 0.03705905 0.04829615 -0.3999999
v 0.03705905 0.0482963 0.4000001
v 0.05000001 0.04999989 -0.3999999
v 0.05000001 0.05000001 0.4000001
v 0.06294096 0.04829615 -0.3999999
v 0.06294096 0.0482963 0.4000001
v 0.07500002 -0.04330128 0.4000001
v 0.07500002 -0.0433014 -0.3999999
v 0.08535536 -0.03535534 0.4000001
v 0.08535536 -0.03535545 -0.3999999
v 0.09330129 -0.0250001 -0.3999999
v 0.09330129 -0.025 0.4000001
v 0.09829631 -0.01294106 -0.3999999
v 0.09829631 -0.01294095 0.4000001
v 0.1 -1.192093E-07 -0.3999999
v 0.1 0 0.4000001
v 0.09829631 0.01294082 -0.3999999
v 0.09829631 0.01294095 0.4000001
v 0.09330129 0.02499986 -0.3999999
v 0.09330129 0.025 0.4000001
v 0.08535536 0.03535521 -0.3999999
v 0.08535536 0.03535534 0.4000001
v 0.07500002 0.04330128 0.4000001
v 0.07500002 0.04330117 -0.3999999
vn -0.0843272 0.05374876 7.450581E-09
vn -0.08871139 0.0461551 3.72529E-09
vn -0.09536503 0.03009183 3.72529E-09
vn -0.09763446 0.02162221 1.862645E-09
vn -0.09990387 0.004384199 4.656613E-10
vn -0.09990387 -0.004384199 -4.656613E-10
vn -0.09763446 -0.02162221 -1.862645E-09
vn -0.09536503 -0.03009183 -3.72529E-09
vn -0.08871139 -0.0461551 -3.72529E-09
vn -0.0843272 -0.05374876 -7.450581E-09
vn -0.0707107 0.07071069 7.450581E-09
vn -0.0707107 -0.07071069 -7.450581E-09
vn -0.05374877 -0.08432719 -7.450581E-09
vn -0.0461551 -0.08871138 -7.450581E-09
vn -0.03009183 -0.09536501 -1.490116E-08
vn -0.02162221 -0.09763444 -1.490116E-08
vn -0.004384199 -0.09990386 -1.490116E-08
vn 0.004384199 -0.09990386 -1.490116E-08
vn 0.02162221 -0.09763444 -1.490116E-08
vn 0.03009183 -0.09536501 -1.490116E-08
vn -0.05374877 0.08432719 7.450581E-09
vn -0.0461551 0.08871138 7.450581E-09
vn -0.03009183 0.09536501 1.490116E-08
vn -0.02162221 0.09763444 1.490116E-08
vn -0.004384199 0.09990386 1.490116E-08
vn 0.004384199 0.09990386 1.490116E-08
vn 0.02162221 0.09763444 1.490116E-08
vn 0.03009183 0.09536501 1.490116E-08
vn 0.0461551 -0.08871138 -7.450581E-09
vn 0.05374877 -0.08432719 -7.450581E-09
vn 0.0707107 -0.07071069 -7.450581E-09
vn 0.0843272 -0.05374876 -7.450581E-09
vn 0.08871139 -0.0461551 -3.72529E-09
vn 0.09536503 -0.03009183 -3.72529E-09
vn 0.09763446 -0.02162221 -1.862645E-09
vn 0.09990387 -0.004384199 -4.656613E-10
vn 0.09990387 0.004384199 4.656613E-10
vn 0.09763446 0.02162221 1.862645E-09
vn 0.09536503 0.03009183 3.72529E-09
vn 0.08871139 0.0461551 3.72529E-09
vn 0.0843272 0.05374876 7.450581E-09
vn 0.0707107 0.07071069 7.450581E-09
vn 0.05374877 0.08432719 7.450581E-09
vn 0.0461551 0.08871138 7.450581E-09
vn 0 1.192093E-07 0.8
vn 0 -1.192093E-07 -0.8
vt -0.3999999 0.02499991
vt 0.4000001 0.025
vt -0.3999999 0.01294086
vt 0.4000001 0.01294095
vt -0.3999999 -9.536741E-08
vt 0.4000001 0
vt -0.3999999 -0.01294105
vt 0.4000001 -0.01294095
vt -0.3999999 -0.0250001
vt 0.4000001 -0.025
vt 0.4000001 0.03535534
vt -0.3999999 0.03535525
vt -0.3999999 -0.03535544
vt 0.4000001 -0.03535534
vt -0.01464466 -0.4000001
vt -0.025 -0.4000001
vt -0.01464466 0.3999999
vt -0.025 0.3999999
vt -0.03705905 -0.4000001
vt -0.03705905 0.3999999
vt -0.05000001 -0.4000001
vt -0.05000001 0.3999999
vt -0.06294096 -0.4000001
vt -0.06294096 0.3999999
vt -0.01464466 -0.3999999
vt -0.025 -0.3999999
vt -0.01464466 0.4000001
vt -0.025 0.4000001
vt -0.03705905 -0.3999999
vt -0.03705905 0.4000001
vt -0.05000001 -0.3999999
vt -0.05000001 0.4000001
vt -0.06294096 -0.3999999
vt -0.06294096 0.4000001
vt -0.07500002 -0.4000001
vt -0.07500002 0.3999999
vt -0.08535536 -0.4000001
vt -0.08535536 0.3999999
vt 0.3999999 -0.03535544
vt -0.4000001 -0.03535534
vt 0.3999999 -0.0250001
vt -0.4000001 -0.025
vt 0.3999999 -0.01294105
vt -0.4000001 -0.01294095
vt 0.3999999 -9.536741E-08
vt -0.4000001 0
vt 0.3999999 0.01294086
vt -0.4000001 0.01294095
vt 0.3999999 0.02499991
vt -0.4000001 0.025
vt 0.3999999 0.03535525
vt -0.4000001 0.03535534
vt -0.08535536 0.4000001
vt -0.07500002 0.4000001
vt -0.08535536 -0.3999999
vt -0.07500002 -0.3999999
vt -3.72529E-09 0
vt 0.001703706 0.01294095
vt 0.001703706 -0.01294095
vt 0.006698725 0.025
vt 0.006698725 -0.025
vt 0.01464466 0.03535534
vt 0.01464466 -0.03535534
vt 0.025 0.04330128
vt 0.025 -0.04330128
vt 0.03705905 0.0482963
vt 0.03705905 -0.0482963
vt 0.05000001 -0.05000001
vt 0.05000001 0.05000001
vt 0.06294096 -0.0482963
vt 0.06294096 0.0482963
vt 0.07500002 0.04330128
vt 0.07500002 -0.04330128
vt 0.08535536 0.03535534
vt 0.08535536 -0.03535534
vt 0.09330129 0.025
vt 0.09330129 -0.025
vt 0.09829631 0.01294095
vt 0.09829631 -0.01294095
vt 0.1 0
vt 3.72529E-09 -9.536741E-08
vt -0.001703706 -0.01294105
vt -0.001703706 0.01294086
vt -0.006698725 0.02499991
vt -0.006698725 -0.0250001
vt -0.01464466 0.03535525
vt -0.01464466 -0.03535544
vt -0.025 0.04330118
vt -0.025 -0.04330137
vt -0.03705905 0.0482962
vt -0.03705905 -0.0482964
vt -0.05000001 0.04999991
vt -0.05000001 -0.05000011
vt -0.06294096 0.0482962
vt -0.06294096 -0.0482964
vt -0.07500002 0.04330118
vt -0.07500002 -0.04330137
vt -0.08535536 0.03535525
vt -0.08535536 -0.03535544
vt -0.09330129 0.02499991
vt -0.09330129 -0.0250001
vt -0.09829631 0.01294086
vt -0.09829631 -0.01294105
vt -0.1 -9.536741E-08

usemtl _defaultMat (Instance)
usemap _defaultMat (Instance)
f 3/3/3 2/2/2 1/1/1
f 2/2/2 3/3/3 4/4/4
f 5/5/5 4/4/4 3/3/3
f 4/4/4 5/5/5 6/6/6
f 7/7/7 6/6/6 5/5/5
f 6/6/6 7/7/7 8/8/8
f 9/9/9 8/8/8 7/7/7
f 8/8/8 9/9/9 10/10/10
f 11/11/11 1/1/1 2/2/2
f 1/1/1 11/11/11 12/12/11
f 13/13/12 10/10/10 9/9/9
f 10/10/10 13/13/12 14/14/12
f 13/17/12 15/16/13 14/15/12
f 15/16/13 13/17/12 16/18/14
f 16/18/14 17/19/15 15/16/13
f 17/19/15 16/18/14 18/20/16
f 18/20/16 19/21/17 17/19/15
f 19/21/17 18/20/16 20/22/18
f 20/22/18 21/23/19 19/21/17
f 21/23/19 20/22/18 22/24/20
f 11/27/11 23/26/21 12/25/11
f 23/26/21 11/27/11 24/28/22
f 24/28/22 25/29/23 23/26/21
f 25/29/23 24/28/22 26/30/24
f 26/30/24 27/31/25 25/29/23
f 27/31/25 26/30/24 28/32/26
f 28/32/26 29/33/27 27/31/25
f 29/33/27 28/32/26 30/34/28
f 22/24/20 31/35/29 21/23/19
f 31/35/29 22/24/20 32/36/30
f 32/36/30 33/37/31 31/35/29
f 33/37/31 32/36/30 34/38/31
f 35/41/32 33/40/31 34/39/31
f 33/40/31 35/41/32 36/42/33
f 37/43/34 36/42/33 35/41/32
f 36/42/33 37/43/34 38/44/35
f 39/45/36 38/44/35 37/43/34
f 38/44/35 39/45/36 40/46/37
f 41/47/38 40/46/37 39/45/36
f 40/46/37 41/47/38 42/48/39
f 43/49/40 42/48/39 41/47/38
f 42/48/39 43/49/40 44/50/41
f 45/51/42 44/50/41 43/49/40
f 44/50/41 45/51/42 46/52/42
f 45/55/42 47/54/43 46/53/42
f 47/54/43 45/55/42 48/56/44
f 48/56/44 30/34/28 47/54/43
f 30/34/28 48/56/44 29/33/27
f 8/59/45 4/58/45 6/57/45
f 4/58/45 8/59/45 2/60/45
f 2/60/45 8/59/45 10/61/45
f 2/60/45 10/61/45 11/62/45
f 11/62/45 10/61/45 14/63/45
f 11/62/45 14/63/45 24/64/45
f 24/64/45 14/63/45 15/65/45
f 24/64/45 15/65/45 26/66/45
f 26/66/45 15/65/45 17/67/45
f 26/66/45 17/67/45 19/68/45
f 26/66/45 19/68/45 28/69/45
f 28/69/45 19/68/45 21/70/45
f 28/69/45 21/70/45 30/71/45
f 30/71/45 21/70/45 47/72/45
f 47/72/45 21/70/45 31/73/45
f 47/72/45 31/73/45 46/74/45
f 46/74/45 31/73/45 33/75/45
f 46/74/45 33/75/45 44/76/45
f 44/76/45 33/75/45 36/77/45
f 44/76/45 36/77/45 42/78/45
f 42/78/45 36/77/45 38/79/45
f 42/78/45 38/79/45 40/80/45
f 3/83/46 7/82/46 5/81/46
f 7/82/46 3/83/46 1/84/46
f 7/82/46 1/84/46 9/85/46
f 9/85/46 1/84/46 12/86/46
f 9/85/46 12/86/46 13/87/46
f 13/87/46 12/86/46 23/88/46
f 13/87/46 23/88/46 16/89/46
f 16/89/46 23/88/46 25/90/46
f 16/89/46 25/90/46 18/91/46
f 18/91/46 25/90/46 27/92/46
f 18/91/46 27/92/46 20/93/46
f 20/93/46 27/92/46 29/94/46
f 20/93/46 29/94/46 22/95/46
f 22/95/46 29/94/46 48/96/46
f 22/95/46 48/96/46 32/97/46
f 32/97/46 48/96/46 45/98/46
f 32/97/46 45/98/46 34/99/46
f 34/99/46 45/98/46 43/100/46
f 34/99/46 43/100/46 35/101/46
f 35/101/46 43/100/46 41/102/46
f 35/101/46 41/102/46 37/103/46
f 37/103/46 41/102/46 39/104/46
v 0.05 -0.05000003 -0.5999999
v 0.05 -0.05000003 -0.4
v 0.05000001 0.05000003 -0.5999999
v 0.05000001 0.05000003 -0.4
v -0.05000003 0.05000002 -0.4
v -0.05000005 -0.05000005 -0.4
vn 0.1 1.490116E-08 0
vn 0 0 0.1999999
vn -1.490116E-08 -0.1000001 0
vn 1.490116E-08 0.1000001 0
vn -0.0707107 -7.450581E-09 -0.1414212
vt 0.5999999 -0.05000003
vt 0.4 -0.05000003
vt 0.5999999 0.05000003
vt 0.4 0.05000003
vt 0.05000001 0.05000003
vt 0.05 -0.05000003
vt -0.05000003 0.05000002
vt -0.05000005 -0.05000005
vt 0.05000005 0.4
vt -0.05 0.4
vt -0.05 0.5999999
vt -0.05000001 -0.4
vt 0.05000003 -0.4
vt -0.05000001 -0.5999999
vt -0.5999999 -0.05000003
vt -0.5999999 0.05000003
vt -0.4 -0.05000005
vt -0.4 0.05000002

usemtl customMaterial1 (Instance)
usemap customMaterial1 (Instance)
f 51/107/47 50/106/47 49/105/47
f 50/106/47 51/107/47 52/108/47
f 53/111/48 50/110/48 52/109/48
f 50/110/48 53/111/48 54/112/48
f 49/115/49 50/114/49 54/113/49
f 51/118/50 53/117/50 52/116/50
f 54/121/51 51/120/51 49/119/51
f 51/120/51 54/121/51 53/122/51
v 0.05 0.05000004 -0.5999999
v 0.05 0.05000004 -0.4
v 0.05000002 -0.05000004 -0.5999999
v 0.05000002 -0.05000004 -0.4
v 0.1500001 -0.05000005 -0.4
v 0.1500001 0.05000003 -0.4
vn -0.1000001 1.490116E-08 0
vn -1.490116E-08 0.1000001 0
vn 1.490116E-08 -0.1000001 0
vn 0.07071071 -7.450581E-09 -0.1414212
vt -0.5999999 0.05000004
vt -0.4 0.05000004
vt -0.5999999 -0.05000004
vt -0.4 -0.05000004
vt 0.05000002 -0.05000004
vt 0.05 0.05000004
vt 0.1500001 -0.05000005
vt 0.1500001 0.05000003
vt -0.1500001 -0.4
vt -0.05 -0.4
vt -0.05 -0.5999999
vt -0.05000002 0.4
vt -0.1500001 0.4
vt -0.05000002 0.5999999
vt 0.5999999 0.05000004
vt 0.5999999 -0.05000004
vt 0.4 0.05000003
vt 0.4 -0.05000005

usemtl customMaterial1 (Instance)
usemap customMaterial1 (Instance)
f 57/125/52 56/124/52 55/123/52
f 56/124/52 57/125/52 58/126/52
f 59/129/48 56/128/48 58/127/48
f 56/128/48 59/129/48 60/130/48
f 55/133/53 56/132/53 60/131/53
f 57/136/54 59/135/54 58/134/54
f 60/139/55 57/138/55 55/137/55
f 57/138/55 60/139/55 59/140/55
v -1.862645E-08 0 0.2000002
v -1.862645E-08 0 0.4
v 0.1 0 0.2000002
v 0.1 0 0.4
v 0.1 0.1 0.4
v -1.862645E-08 0.1 0.4
vn 0 -0.1 0
vn 0 0 0.1999998
vn -0.1000001 0 0
vn 0.1000001 0 0
vn 0 0.07071071 -0.1414212
vt 1.862645E-08 -0.2000002
vt 1.862645E-08 -0.4
vt -0.1 -0.2000002
vt -0.1 -0.4
vt 0.1 0
vt -1.862645E-08 0
vt 0.1 0.1
vt -1.862645E-08 0.1
vt 0.4 0.1
vt 0.4 0
vt 0.2000002 0
vt -0.4 0
vt -0.4 0.1
vt -0.2000002 0
vt 1.862645E-08 0.2000002
vt -0.1 0.2000002
vt 1.862645E-08 0.4
vt -0.1 0.4

usemtl customMaterial2 (Instance)
usemap customMaterial2 (Instance)
f 63/143/56 62/142/56 61/141/56
f 62/142/56 63/143/56 64/144/56
f 65/147/57 62/146/57 64/145/57
f 62/146/57 65/147/57 66/148/57
f 61/151/58 62/150/58 66/149/58
f 63/154/59 65/153/59 64/152/59
f 66/157/60 63/156/60 61/155/60
f 63/156/60 66/157/60 65/158/60
v 0.006698728 0.02499999 0.4
v 0.006698728 0.025 0.5
v 0.001703702 0.01294094 0.4
v 0.001703702 0.01294095 0.5
v -7.450581E-09 -1.490116E-08 0.4
v -7.450581E-09 0 0.5
v 0.001703702 -0.01294097 0.4
v 0.001703702 -0.01294095 0.5
v 0.006698728 -0.02500001 0.4
v 0.006698728 -0.025 0.5
v 0.01464466 0.03535534 0.5
v 0.01464466 0.03535533 0.4
v 0.01464466 -0.03535535 0.4
v 0.01464466 -0.03535534 0.5
v 0.025 -0.04330128 0.5
v 0.025 -0.04330129 0.4
v 0.03705905 -0.0482963 0.5
v 0.03705905 -0.04829631 0.4
v 0.05000001 -0.05000001 0.5
v 0.05000001 -0.05000002 0.4
v 0.06294096 -0.0482963 0.5
v 0.06294096 -0.04829631 0.4
v 0.025 0.04330126 0.4
v 0.025 0.04330128 0.5
v 0.03705905 0.04829628 0.4
v 0.03705905 0.0482963 0.5
v 0.05000001 0.04999999 0.4
v 0.05000001 0.05000001 0.5
v 0.06294096 0.04829628 0.4
v 0.06294096 0.0482963 0.5
v 0.07500002 -0.04330128 0.5
v 0.07500002 -0.04330129 0.4
v 0.08535536 -0.03535534 0.5
v 0.08535536 -0.03535535 0.4
v 0.09330129 -0.02500001 0.4
v 0.09330129 -0.025 0.5
v 0.09829631 -0.01294097 0.4
v 0.09829631 -0.01294095 0.5
v 0.1 -1.490116E-08 0.4
v 0.1 0 0.5
v 0.09829631 0.01294094 0.4
v 0.09829631 0.01294095 0.5
v 0.09330129 0.02499999 0.4
v 0.09330129 0.025 0.5
v 0.08535536 0.03535533 0.4
v 0.08535536 0.03535534 0.5
v 0.07500002 0.04330128 0.5
v 0.07500002 0.04330126 0.4
vn 0 1.490116E-08 0.1
vn 0 -1.490116E-08 -0.1
vt 0.4 0.02499999
vt 0.5 0.025
vt 0.4 0.01294094
vt 0.5 0.01294095
vt 0.4 -1.192093E-08
vt 0.5 0
vt 0.4 -0.01294097
vt 0.5 -0.01294095
vt 0.4 -0.02500002
vt 0.5 -0.025
vt 0.5 0.03535534
vt 0.4 0.03535533
vt 0.4 -0.03535536
vt 0.5 -0.03535534
vt -0.01464466 -0.5
vt -0.025 -0.5
vt -0.01464466 -0.4
vt -0.025 -0.4
vt -0.03705905 -0.5
vt -0.03705905 -0.4
vt -0.05000001 -0.5
vt -0.05000001 -0.4
vt -0.06294096 -0.5
vt -0.06294096 -0.4
vt -0.01464466 0.4
vt -0.025 0.4
vt -0.01464466 0.5
vt -0.025 0.5
vt -0.03705905 0.4
vt -0.03705905 0.5
vt -0.05000001 0.4
vt -0.05000001 0.5
vt -0.06294096 0.4
vt -0.06294096 0.5
vt -0.07500002 -0.5
vt -0.07500002 -0.4
vt -0.08535536 -0.5
vt -0.08535536 -0.4
vt -0.4 -0.03535536
vt -0.5 -0.03535534
vt -0.4 -0.02500002
vt -0.5 -0.025
vt -0.4 -0.01294097
vt -0.5 -0.01294095
vt -0.4 -1.192093E-08
vt -0.5 0
vt -0.4 0.01294094
vt -0.5 0.01294095
vt -0.4 0.02499999
vt -0.5 0.025
vt -0.4 0.03535533
vt -0.5 0.03535534
vt -0.08535536 0.5
vt -0.07500002 0.5
vt -0.08535536 0.4
vt -0.07500002 0.4
vt 3.72529E-09 -1.192093E-08
vt -0.001703706 -0.01294097
vt -0.001703706 0.01294094
vt -0.006698725 0.02499999
vt -0.006698725 -0.02500002
vt -0.01464466 0.03535533
vt -0.01464466 -0.03535536
vt -0.025 0.04330127
vt -0.025 -0.04330129
vt -0.03705905 0.04829629
vt -0.03705905 -0.04829631
vt -0.05000001 0.05
vt -0.05000001 -0.05000002
vt -0.06294096 0.04829629
vt -0.06294096 -0.04829631
vt -0.07500002 0.04330127
vt -0.07500002 -0.04330129
vt -0.08535536 0.03535533
vt -0.08535536 -0.03535536
vt -0.09330129 0.02499999
vt -0.09330129 -0.02500002
vt -0.09829631 0.01294094
vt -0.09829631 -0.01294097
vt -0.1 -1.192093E-08

usemtl customMaterial1 (Instance)
usemap customMaterial1 (Instance)
f 69/161/3 68/160/2 67/159/1
f 68/160/2 69/161/3 70/162/4
f 71/163/5 70/162/4 69/161/3
f 70/162/4 71/163/5 72/164/6
f 73/165/7 72/164/6 71/163/5
f 72/164/6 73/165/7 74/166/8
f 75/167/9 74/166/8 73/165/7
f 74/166/8 75/167/9 76/168/10
f 77/169/11 67/159/1 68/160/2
f 67/159/1 77/169/11 78/170/11
f 79/171/12 76/168/10 75/167/9
f 76/168/10 79/171/12 80/172/12
f 79/175/12 81/174/13 80/173/12
f 81/174/13 79/175/12 82/176/14
f 82/176/14 83/177/15 81/174/13
f 83/177/15 82/176/14 84/178/16
f 84/178/16 85/179/17 83/177/15
f 85/179/17 84/178/16 86/180/18
f 86/180/18 87/181/19 85/179/17
f 87/181/19 86/180/18 88/182/20
f 77/185/11 89/184/21 78/183/11
f 89/184/21 77/185/11 90/186/22
f 90/186/22 91/187/23 89/184/21
f 91/187/23 90/186/22 92/188/24
f 92/188/24 93/189/25 91/187/23
f 93/189/25 92/188/24 94/190/26
f 94/190/26 95/191/27 93/189/25
f 95/191/27 94/190/26 96/192/28
f 88/182/20 97/193/29 87/181/19
f 97/193/29 88/182/20 98/194/30
f 98/194/30 99/195/31 97/193/29
f 99/195/31 98/194/30 100/196/31
f 101/199/32 99/198/31 100/197/31
f 99/198/31 101/199/32 102/200/33
f 103/201/34 102/200/33 101/199/32
f 102/200/33 103/201/34 104/202/35
f 105/203/36 104/202/35 103/201/34
f 104/202/35 105/203/36 106/204/37
f 107/205/38 106/204/37 105/203/36
f 106/204/37 107/205/38 108/206/39
f 109/207/40 108/206/39 107/205/38
f 108/206/39 109/207/40 110/208/41
f 111/209/42 110/208/41 109/207/40
f 110/208/41 111/209/42 112/210/42
f 111/213/42 113/212/43 112/211/42
f 113/212/43 111/213/42 114/214/44
f 114/214/44 96/192/28 113/212/43
f 96/192/28 114/214/44 95/191/27
f 74/59/61 70/58/61 72/57/61
f 70/58/61 74/59/61 68/60/61
f 68/60/61 74/59/61 76/61/61
f 68/60/61 76/61/61 77/62/61
f 77/62/61 76/61/61 80/63/61
f 77/62/61 80/63/61 90/64/61
f 90/64/61 80/63/61 81/65/61
f 90/64/61 81/65/61 92/66/61
f 92/66/61 81/65/61 83/67/61
f 92/66/61 83/67/61 85/68/61
f 92/66/61 85/68/61 94/69/61
f 94/69/61 85/68/61 87/70/61
f 94/69/61 87/70/61 96/71/61
f 96/71/61 87/70/61 113/72/61
f 113/72/61 87/70/61 97/73/61
f 113/72/61 97/73/61 112/74/61
f 112/74/61 97/73/61 99/75/61
f 112/74/61 99/75/61 110/76/61
f 110/76/61 99/75/61 102/77/61
f 110/76/61 102/77/61 108/78/61
f 108/78/61 102/77/61 104/79/61
f 108/78/61 104/79/61 106/80/61
f 69/217/62 73/216/62 71/215/62
f 73/216/62 69/217/62 67/218/62
f 73/216/62 67/218/62 75/219/62
f 75/219/62 67/218/62 78/220/62
f 75/219/62 78/220/62 79/221/62
f 79/221/62 78/220/62 89/222/62
f 79/221/62 89/222/62 82/223/62
f 82/223/62 89/222/62 91/224/62
f 82/223/62 91/224/62 84/225/62
f 84/225/62 91/224/62 93/226/62
f 84/225/62 93/226/62 86/227/62
f 86/227/62 93/226/62 95/228/62
f 86/227/62 95/228/62 88/229/62
f 88/229/62 95/228/62 114/230/62
f 88/229/62 114/230/62 98/231/62
f 98/231/62 114/230/62 111/232/62
f 98/231/62 111/232/62 100/233/62
f 100/233/62 111/232/62 109/234/62
f 100/233/62 109/234/62 101/235/62
f 101/235/62 109/234/62 107/236/62
f 101/235/62 107/236/62 103/237/62
f 103/237/62 107/236/62 105/238/62
v -1.862645E-08 -0.1 0.4
v 0.1 -0.1 0.4
vn 0 0.1 0
vn 0 -0.07071071 -0.1414212
vt -1.862645E-08 -0.1
vt 0.1 -0.1
vt -0.4 -0.1
vt 0.4 -0.1

usemtl customMaterial2 (Instance)
usemap customMaterial2 (Instance)
f 61/155/63 64/158/63 63/156/63
f 64/158/63 61/155/63 62/157/63
f 115/239/57 64/145/57 62/146/57
f 64/145/57 115/239/57 116/240/57
f 63/154/59 64/152/59 116/241/59
f 61/151/58 115/242/58 62/150/58
f 116/144/64 61/141/64 63/143/64
f 61/141/64 116/144/64 115/142/64
v 0.05 -0.05000004 0.2
v 0.05 -0.05000004 0.4000001
v 0.05000002 0.05000004 0.2
v 0.05000002 0.05000004 0.4000001
v -0.05000004 0.05000002 0.4000001
v -0.05000006 -0.05000005 0.4000001
vn 0.1000001 1.490116E-08 0
vn 0 0 0.2000001
vn -1.490116E-08 -0.1000001 0
vn 1.490116E-08 0.1000001 0
vn -0.07071072 -7.450581E-09 -0.1414214
vt -0.2 -0.05000004
vt -0.4000001 -0.05000004
vt -0.2 0.05000004
vt -0.4000001 0.05000004
vt 0.05000002 0.05000004
vt 0.05 -0.05000004
vt -0.05000004 0.05000003
vt -0.05000006 -0.05000005
vt 0.05000006 -0.4000001
vt -0.05 -0.4000001
vt -0.05 -0.2
vt -0.05000002 0.4000001
vt 0.05000004 0.4000001
vt -0.05000002 0.2
vt 0.2 -0.05000004
vt 0.2 0.05000004
vt 0.4000001 -0.05000005
vt 0.4000001 0.05000003

usemtl customMaterial2 (Instance)
usemap customMaterial2 (Instance)
f 119/245/65 118/244/65 117/243/65
f 118/244/65 119/245/65 120/246/65
f 121/249/66 118/248/66 120/247/66
f 118/248/66 121/249/66 122/250/66
f 117/253/67 118/252/67 122/251/67
f 119/256/68 121/255/68 120/254/68
f 122/259/69 119/258/69 117/257/69
f 119/258/69 122/259/69 121/260/69
v 0.05 0.05000004 0.2
v 0.05 0.05000004 0.4000001
v 0.05000002 -0.05000004 0.2
v 0.05000002 -0.05000004 0.4000001
v 0.1500001 -0.05000005 0.4000001
v 0.1500001 0.05000002 0.4000001
vn -0.1000001 1.490116E-08 0
vn 0.07071072 -7.450581E-09 -0.1414214
vt 0.4000001 0.05000004
vt 0.4000001 -0.05000004
vt 0.05000002 -0.05000004
vt 0.05 0.05000004
vt 0.1500001 -0.05000005
vt -0.1500001 0.4000001
vt -0.05 0.4000001
vt -0.05 0.2
vt -0.05000002 -0.4000001
vt -0.1500001 -0.4000001
vt -0.05000002 -0.2
vt -0.4000001 0.05000003
vt -0.4000001 -0.05000005

usemtl customMaterial2 (Instance)
usemap customMaterial2 (Instance)
f 125/257/70 124/261/70 123/258/70
f 124/261/70 125/257/70 126/262/70
f 127/265/66 124/264/66 126/263/66
f 124/264/66 127/265/66 128/130/66
f 123/268/53 124/267/53 128/266/53
f 125/271/54 127/270/54 126/269/54
f 128/272/71 125/243/71 123/245/71
f 125/243/71 128/272/71 127/273/71
