# Made using Asset Forge (www.assetforge.io) version 1.3 

mtllib Sledgehammer.mtl 

v 0.08660255 0.9 -0.05000002
v 0.08660255 0 -0.05000002
v 0.09659258 0.9 -0.02588192
v 0.09659258 0 -0.02588192
v 0.1 0.9 -1.49E-08
v 0.1 0 -1.49E-08
v 0.09659258 0.9 0.02588189
v 0.09659258 0 0.02588189
v 0.08660255 0.9 0.04999999
v 0.08660255 0 0.04999999
v 0.07071068 0 -0.0707107
v 0.07071068 0.9 -0.0707107
v 0.07071068 0.9 0.07071067
v 0.07071068 0 0.07071067
v 0.05 0 0.08660253
v 0.05 0.9 0.08660253
v 0.02588191 0 0.09659257
v 0.02588191 0.9 0.09659257
v 0 0 0.09999999
v 0 0.9 0.09999999
v -0.02588191 0 0.09659257
v -0.02588191 0.9 0.09659257
v 0.05 0.9 -0.08660256
v 0.05 0 -0.08660256
v 0.02588191 0.9 -0.0965926
v 0.02588191 0 -0.0965926
v 0 0.9 -0.1
v 0 0 -0.1
v -0.02588191 0.9 -0.0965926
v -0.02588191 0 -0.0965926
v -0.05 0 0.08660253
v -0.05 0.9 0.08660253
v -0.07071068 0 0.07071067
v -0.07071068 0.9 0.07071067
v -0.08660255 0.9 0.04999999
v -0.08660255 0 0.04999999
v -0.09659258 0.9 0.02588189
v -0.09659258 0 0.02588189
v -0.1 0.9 -1.49E-08
v -0.1 0 -1.49E-08
v -0.09659258 0.9 -0.02588192
v -0.09659258 0 -0.02588192
v -0.08660255 0.9 -0.05000002
v -0.08660255 0 -0.05000002
v -0.07071068 0.9 -0.0707107
v -0.07071068 0 -0.0707107
v -0.05 0 -0.08660256
v -0.05 0.9 -0.08660256
vn 0.1686544 0 -0.1074975
vn 0.1774227 0 -0.09231018
vn 0.19073 0 -0.06018364
vn 0.1952689 0 -0.04324441
vn 0.1998077 0 -0.008768396
vn 0.1998077 0 0.008768396
vn 0.1952689 0 0.04324441
vn 0.19073 0 0.06018364
vn 0.1774227 0 0.09231018
vn 0.1686544 0 0.1074975
vn 0.1414214 0 -0.1414214
vn 0.1414214 0 0.1414214
vn 0.1074975 0 0.1686544
vn 0.09231018 0 0.1774227
vn 0.06018364 0 0.19073
vn 0.04324441 0 0.1952689
vn 0.008768396 0 0.1998077
vn -0.008768396 0 0.1998077
vn -0.04324441 0 0.1952689
vn -0.06018364 0 0.19073
vn 0.1074975 0 -0.1686544
vn 0.09231018 0 -0.1774227
vn 0.06018364 0 -0.19073
vn 0.04324441 0 -0.1952689
vn 0.008768396 0 -0.1998077
vn -0.008768396 0 -0.1998077
vn -0.04324441 0 -0.1952689
vn -0.06018364 0 -0.19073
vn -0.09231018 0 0.1774227
vn -0.1074975 0 0.1686544
vn -0.1414214 0 0.1414214
vn -0.1686544 0 0.1074975
vn -0.1774227 0 0.09231018
vn -0.19073 0 0.06018364
vn -0.1952689 0 0.04324441
vn -0.1998077 0 0.008768396
vn -0.1998077 0 -0.008768396
vn -0.1952689 0 -0.04324441
vn -0.19073 0 -0.06018364
vn -0.1774227 0 -0.09231018
vn -0.1686544 0 -0.1074975
vn -0.1414214 0 -0.1414214
vn -0.1074975 0 -0.1686544
vn -0.09231018 0 -0.1774227
vn 0 -0.9 0
vn 0 0.9 0
vt 0.05000002 0.9
vt 0.05000002 0
vt 0.02588192 0.9
vt 0.02588192 0
vt 1.49E-08 0.9
vt 1.49E-08 0
vt -0.02588189 0.9
vt -0.02588189 0
vt -0.04999999 0.9
vt -0.04999999 0
vt 0.0707107 0
vt 0.0707107 0.9
vt -0.07071067 0.9
vt -0.07071067 0
vt 0.07071068 0
vt 0.05 0
vt 0.07071068 0.9
vt 0.05 0.9
vt 0.02588191 0
vt 0.02588191 0.9
vt 0 0
vt 0 0.9
vt -0.02588191 0
vt -0.02588191 0.9
vt -0.07071068 0.9
vt -0.05 0.9
vt -0.07071068 0
vt -0.05 0
vt 0.07071067 0.9
vt 0.07071067 0
vt 0.04999999 0.9
vt 0.04999999 0
vt 0.02588189 0.9
vt 0.02588189 0
vt -1.49E-08 0.9
vt -1.49E-08 0
vt -0.02588192 0.9
vt -0.02588192 0
vt -0.05000002 0.9
vt -0.05000002 0
vt -0.0707107 0.9
vt -0.0707107 0
vt -0.1 1.49E-08
vt -0.09659258 0.02588192
vt -0.09659258 -0.02588189
vt -0.08660255 0.05000002
vt -0.08660255 -0.04999999
vt -0.07071068 0.0707107
vt -0.07071068 -0.07071067
vt -0.05 0.08660256
vt -0.05 -0.08660253
vt -0.02588191 0.0965926
vt -0.02588191 -0.09659257
vt 0 -0.09999999
vt 0 0.1
vt 0.02588191 -0.09659257
vt 0.02588191 0.0965926
vt 0.05 0.08660256
vt 0.05 -0.08660253
vt 0.07071068 0.0707107
vt 0.07071068 -0.07071067
vt 0.08660255 0.05000002
vt 0.08660255 -0.04999999
vt 0.09659258 0.02588192
vt 0.09659258 -0.02588189
vt 0.1 1.49E-08
vt -0.1 -1.49E-08
vt -0.09659258 0.02588189
vt -0.09659258 -0.02588192
vt -0.08660255 -0.05000002
vt -0.08660255 0.04999999
vt -0.07071068 -0.0707107
vt -0.07071068 0.07071067
vt -0.05 -0.08660256
vt -0.05 0.08660253
vt -0.02588191 -0.0965926
vt -0.02588191 0.09659257
vt 0 -0.1
vt 0 0.09999999
vt 0.02588191 -0.0965926
vt 0.02588191 0.09659257
vt 0.05 -0.08660256
vt 0.05 0.08660253
vt 0.07071068 -0.0707107
vt 0.07071068 0.07071067
vt 0.08660255 -0.05000002
vt 0.08660255 0.04999999
vt 0.09659258 -0.02588192
vt 0.09659258 0.02588189
vt 0.1 -1.49E-08

usemtl _defaultMat (Instance)
usemap _defaultMat (Instance)
f 3/3/3 2/2/2 1/1/1
f 2/2/2 3/3/3 4/4/4
f 5/5/5 4/4/4 3/3/3
f 4/4/4 5/5/5 6/6/6
f 7/7/7 6/6/6 5/5/5
f 6/6/6 7/7/7 8/8/8
f 9/9/9 8/8/8 7/7/7
f 8/8/8 9/9/9 10/10/10
f 11/11/11 1/1/1 2/2/2
f 1/1/1 11/11/11 12/12/11
f 13/13/12 10/10/10 9/9/9
f 10/10/10 13/13/12 14/14/12
f 13/17/12 15/16/13 14/15/12
f 15/16/13 13/17/12 16/18/14
f 16/18/14 17/19/15 15/16/13
f 17/19/15 16/18/14 18/20/16
f 18/20/16 19/21/17 17/19/15
f 19/21/17 18/20/16 20/22/18
f 20/22/18 21/23/19 19/21/17
f 21/23/19 20/22/18 22/24/20
f 11/27/11 23/26/21 12/25/11
f 23/26/21 11/27/11 24/28/22
f 24/28/22 25/24/23 23/26/21
f 25/24/23 24/28/22 26/23/24
f 26/23/24 27/22/25 25/24/23
f 27/22/25 26/23/24 28/21/26
f 28/21/26 29/20/27 27/22/25
f 29/20/27 28/21/26 30/19/28
f 22/24/20 31/28/29 21/23/19
f 31/28/29 22/24/20 32/26/30
f 32/26/30 33/27/31 31/28/29
f 33/27/31 32/26/30 34/25/31
f 35/31/32 33/30/31 34/29/31
f 33/30/31 35/31/32 36/32/33
f 37/33/34 36/32/33 35/31/32
f 36/32/33 37/33/34 38/34/35
f 39/35/36 38/34/35 37/33/34
f 38/34/35 39/35/36 40/36/37
f 41/37/38 40/36/37 39/35/36
f 40/36/37 41/37/38 42/38/39
f 43/39/40 42/38/39 41/37/38
f 42/38/39 43/39/40 44/40/41
f 45/41/42 44/40/41 43/39/40
f 44/40/41 45/41/42 46/42/42
f 45/17/42 47/16/43 46/15/42
f 47/16/43 45/17/42 48/18/44
f 48/18/44 30/19/28 47/16/43
f 30/19/28 48/18/44 29/20/27
f 8/45/45 4/44/45 6/43/45
f 4/44/45 8/45/45 2/46/45
f 2/46/45 8/45/45 10/47/45
f 2/46/45 10/47/45 11/48/45
f 11/48/45 10/47/45 14/49/45
f 11/48/45 14/49/45 24/50/45
f 24/50/45 14/49/45 15/51/45
f 24/50/45 15/51/45 26/52/45
f 26/52/45 15/51/45 17/53/45
f 26/52/45 17/53/45 19/54/45
f 26/52/45 19/54/45 28/55/45
f 28/55/45 19/54/45 21/56/45
f 28/55/45 21/56/45 30/57/45
f 30/57/45 21/56/45 47/58/45
f 47/58/45 21/56/45 31/59/45
f 47/58/45 31/59/45 46/60/45
f 46/60/45 31/59/45 33/61/45
f 46/60/45 33/61/45 44/62/45
f 44/62/45 33/61/45 36/63/45
f 44/62/45 36/63/45 42/64/45
f 42/64/45 36/63/45 38/65/45
f 42/64/45 38/65/45 40/66/45
f 3/69/46 7/68/46 5/67/46
f 7/68/46 3/69/46 1/70/46
f 7/68/46 1/70/46 9/71/46
f 9/71/46 1/70/46 12/72/46
f 9/71/46 12/72/46 13/73/46
f 13/73/46 12/72/46 23/74/46
f 13/73/46 23/74/46 16/75/46
f 16/75/46 23/74/46 25/76/46
f 16/75/46 25/76/46 18/77/46
f 18/77/46 25/76/46 27/78/46
f 18/77/46 27/78/46 20/79/46
f 20/79/46 27/78/46 29/80/46
f 20/79/46 29/80/46 22/81/46
f 22/81/46 29/80/46 48/82/46
f 22/81/46 48/82/46 32/83/46
f 32/83/46 48/82/46 45/84/46
f 32/83/46 45/84/46 34/85/46
f 34/85/46 45/84/46 43/86/46
f 34/85/46 43/86/46 35/87/46
f 35/87/46 43/86/46 41/88/46
f 35/87/46 41/88/46 37/89/46
f 37/89/46 41/88/46 39/90/46
v 0.08660255 1.5 -0.05000002
v 0.09659258 1.5 -0.02588192
v 0.1 1.5 -1.49E-08
v 0.09659258 1.5 0.02588189
v 0.08660255 1.5 0.04999999
v 0.07071068 1.5 -0.0707107
v 0.07071068 1.5 0.07071067
v 0.05 1.5 0.08660253
v 0.02588191 1.5 0.09659257
v 0 1.5 0.09999999
v -0.02588191 1.5 0.09659257
v 0.05 1.5 -0.08660256
v 0.02588191 1.5 -0.0965926
v 0 1.5 -0.1
v -0.02588191 1.5 -0.0965926
v -0.05 1.5 0.08660253
v -0.07071068 1.5 0.07071067
v -0.08660255 1.5 0.04999999
v -0.09659258 1.5 0.02588189
v -0.1 1.5 -1.49E-08
v -0.09659258 1.5 -0.02588192
v -0.08660255 1.5 -0.05000002
v -0.07071068 1.5 -0.0707107
v -0.05 1.5 -0.08660256
vn 0 -0.6 0
vn 0 0.6 0
vt 0.05000002 1.5
vt 0.02588192 1.5
vt 1.49E-08 1.5
vt -0.02588189 1.5
vt -0.04999999 1.5
vt 0.0707107 1.5
vt -0.07071067 1.5
vt 0.07071068 1.5
vt 0.05 1.5
vt 0.02588191 1.5
vt 0 1.5
vt -0.02588191 1.5
vt -0.07071068 1.5
vt -0.05 1.5
vt 0.07071067 1.5
vt 0.04999999 1.5
vt 0.02588189 1.5
vt -1.49E-08 1.5
vt -0.02588192 1.5
vt -0.05000002 1.5
vt -0.0707107 1.5

usemtl bricks (Instance)
usemap bricks (Instance)
f 50/92/3 1/1/2 49/91/1
f 1/1/2 50/92/3 3/3/4
f 51/93/5 3/3/4 50/92/3
f 3/3/4 51/93/5 5/5/6
f 52/94/7 5/5/6 51/93/5
f 5/5/6 52/94/7 7/7/8
f 53/95/9 7/7/8 52/94/7
f 7/7/8 53/95/9 9/9/10
f 12/12/11 49/91/1 1/1/2
f 49/91/1 12/12/11 54/96/11
f 55/97/12 9/9/10 53/95/9
f 9/9/10 55/97/12 13/13/12
f 55/98/12 16/18/13 13/17/12
f 16/18/13 55/98/12 56/99/14
f 56/99/14 18/20/15 16/18/13
f 18/20/15 56/99/14 57/100/16
f 57/100/16 20/22/17 18/20/15
f 20/22/17 57/100/16 58/101/18
f 58/101/18 22/24/19 20/22/17
f 22/24/19 58/101/18 59/102/20
f 12/25/11 60/104/21 54/103/11
f 60/104/21 12/25/11 23/26/22
f 23/26/22 61/102/23 60/104/21
f 61/102/23 23/26/22 25/24/24
f 25/24/24 62/101/25 61/102/23
f 62/101/25 25/24/24 27/22/26
f 27/22/26 63/100/27 62/101/25
f 63/100/27 27/22/26 29/20/28
f 59/102/20 32/26/29 22/24/19
f 32/26/29 59/102/20 64/104/30
f 64/104/30 34/25/31 32/26/29
f 34/25/31 64/104/30 65/103/31
f 66/106/32 34/29/31 65/105/31
f 34/29/31 66/106/32 35/31/33
f 67/107/34 35/31/33 66/106/32
f 35/31/33 67/107/34 37/33/35
f 68/108/36 37/33/35 67/107/34
f 37/33/35 68/108/36 39/35/37
f 69/109/38 39/35/37 68/108/36
f 39/35/37 69/109/38 41/37/39
f 70/110/40 41/37/39 69/109/38
f 41/37/39 70/110/40 43/39/41
f 71/111/42 43/39/41 70/110/40
f 43/39/41 71/111/42 45/41/42
f 71/98/42 48/18/43 45/17/42
f 48/18/43 71/98/42 72/99/44
f 72/99/44 29/20/28 48/18/43
f 29/20/28 72/99/44 63/100/27
f 7/45/47 3/44/47 5/43/47
f 3/44/47 7/45/47 1/46/47
f 1/46/47 7/45/47 9/47/47
f 1/46/47 9/47/47 12/48/47
f 12/48/47 9/47/47 13/49/47
f 12/48/47 13/49/47 23/50/47
f 23/50/47 13/49/47 16/51/47
f 23/50/47 16/51/47 25/52/47
f 25/52/47 16/51/47 18/53/47
f 25/52/47 18/53/47 20/54/47
f 25/52/47 20/54/47 27/55/47
f 27/55/47 20/54/47 22/56/47
f 27/55/47 22/56/47 29/57/47
f 29/57/47 22/56/47 48/58/47
f 48/58/47 22/56/47 32/59/47
f 48/58/47 32/59/47 45/60/47
f 45/60/47 32/59/47 34/61/47
f 45/60/47 34/61/47 43/62/47
f 43/62/47 34/61/47 35/63/47
f 43/62/47 35/63/47 41/64/47
f 41/64/47 35/63/47 37/65/47
f 41/64/47 37/65/47 39/66/47
f 50/69/48 52/68/48 51/67/48
f 52/68/48 50/69/48 49/70/48
f 52/68/48 49/70/48 53/71/48
f 53/71/48 49/70/48 54/72/48
f 53/71/48 54/72/48 55/73/48
f 55/73/48 54/72/48 60/74/48
f 55/73/48 60/74/48 56/75/48
f 56/75/48 60/74/48 61/76/48
f 56/75/48 61/76/48 57/77/48
f 57/77/48 61/76/48 62/78/48
f 57/77/48 62/78/48 58/79/48
f 58/79/48 62/78/48 63/80/48
f 58/79/48 63/80/48 59/81/48
f 59/81/48 63/80/48 72/82/48
f 59/81/48 72/82/48 64/83/48
f 64/83/48 72/82/48 71/84/48
f 64/83/48 71/84/48 65/85/48
f 65/85/48 71/84/48 70/86/48
f 65/85/48 70/86/48 66/87/48
f 66/87/48 70/86/48 69/88/48
f 66/87/48 69/88/48 67/89/48
f 67/89/48 69/88/48 68/90/48
v 0.225 1.625 0.2
v -0.225 1.625 0.2
v 0.225 2.375 0.2
v -0.225 2.375 0.2
v 0.3 2.375 -0.15
v 0.3 1.625 -0.15
v 0.3 2.375 0.15
v 0.3 1.625 0.15
v 0.225 2.5 -0.15
v 0.225 2.5 0.15
v -0.225 2.5 -0.15
v -0.225 2.5 0.15
v -0.225 1.625 -0.2
v 0.225 1.625 -0.2
v -0.225 2.375 -0.2
v 0.225 2.375 -0.2
v 0.225 1.5 0.15
v 0.225 1.5 -0.15
v -0.225 1.5 0.15
v -0.225 1.5 -0.15
v -0.3 1.625 -0.15
v -0.3 2.375 -0.15
v -0.3 1.625 0.15
v -0.3 2.375 0.15
vn 0 0 0.4
vn 0.6 0 0
vn 0 1 0
vn 0 0 -0.4
vn 0 -1 0
vn -0.6 0 0
vn 0.3464102 0.5773502 -0.2309401
vn 0.4242641 0 -0.2828427
vn 0 -0.7071068 -0.2828427
vn 0.3464102 -0.5773503 -0.2309401
vn 0.4242641 -0.7071068 0
vn 0.4242642 0.7071066 0
vn 0.3464102 0.5773502 0.2309401
vn 0.4242641 0 0.2828427
vn 0.3464102 -0.5773503 0.2309401
vn 0 0.7071066 0.2828428
vn -0.3464102 0.5773502 0.2309401
vn -0.4242641 -0.7071068 0
vn 0 -0.7071068 0.2828427
vn -0.4242641 0 0.2828427
vn -0.3464102 -0.5773503 0.2309401
vn -0.3464102 -0.5773503 -0.2309401
vn -0.4242641 0 -0.2828427
vn -0.4242642 0.7071066 0
vn 0 0.7071066 -0.2828428
vn -0.3464102 0.5773502 -0.2309401
vt 0.225 1.625
vt -0.225 1.625
vt 0.225 2.375
vt -0.225 2.375
vt 0.15 2.375
vt 0.15 1.625
vt -0.15 2.375
vt -0.15 1.625
vt -0.225 -0.15
vt -0.225 0.15
vt 0.225 -0.15
vt 0.225 0.15
vt -0.3 2.375
vt -0.225 2.5
vt -0.3 1.625
vt -0.225 1.5
vt 0.225 1.5
vt -0.15 1.5
vt 0.15 1.5
vt 0.15 2.5
vt -0.15 2.5
vt 0.3 2.375
vt 0.225 2.5
vt 0.3 1.625

usemtl _defaultMat (Instance) (Instance)
usemap _defaultMat (Instance) (Instance)
f 75/114/49 74/113/49 73/112/49
f 74/113/49 75/114/49 76/115/49
f 79/118/50 78/117/50 77/116/50
f 78/117/50 79/118/50 80/119/50
f 83/122/51 82/121/51 81/120/51
f 82/121/51 83/122/51 84/123/51
f 87/114/52 86/113/52 85/112/52
f 86/113/52 87/114/52 88/115/52
f 91/122/53 90/121/53 89/120/53
f 90/121/53 91/122/53 92/123/53
f 95/117/54 94/118/54 93/119/54
f 94/118/54 95/117/54 96/116/54
f 81/125/55 77/124/55 88/115/55
f 88/115/56 78/126/56 86/113/56
f 78/126/56 88/115/56 77/124/56
f 92/128/57 86/113/57 90/127/57
f 86/113/57 92/128/57 85/112/57
f 86/113/58 78/126/58 90/127/58
f 89/129/59 78/117/59 80/119/59
f 78/117/59 89/129/59 90/130/59
f 81/131/60 79/118/60 77/116/60
f 79/118/60 81/131/60 82/132/60
f 82/134/61 75/114/61 79/133/61
f 79/133/62 73/112/62 80/135/62
f 73/112/62 79/133/62 75/114/62
f 73/112/63 89/128/63 80/135/63
f 82/134/64 76/115/64 75/114/64
f 76/115/64 82/134/64 84/125/64
f 76/115/65 84/125/65 96/124/65
f 91/130/66 93/119/66 92/129/66
f 93/119/66 91/130/66 95/117/66
f 73/112/67 91/127/67 89/128/67
f 91/127/67 73/112/67 74/113/67
f 74/113/68 96/124/68 95/126/68
f 96/124/68 74/113/68 76/115/68
f 74/113/69 95/126/69 91/127/69
f 93/135/70 85/112/70 92/128/70
f 93/135/71 87/114/71 85/112/71
f 87/114/71 93/135/71 94/133/71
f 96/116/72 83/132/72 94/118/72
f 83/132/72 96/116/72 84/131/72
f 87/114/73 81/125/73 88/115/73
f 81/125/73 87/114/73 83/134/73
f 83/134/74 87/114/74 94/133/74
v 0.225 1.7 -0.09999999
v -0.225 1.7 -0.09999999
v 0.225 2.3 -0.09999999
v -0.225 2.3 -0.09999999
v 0.3 2.3 -0.5375
v 0.3 1.7 -0.5375
v 0.3 2.3 -0.1625
v 0.3 1.7 -0.1625
v 0.225 2.4 -0.5375
v 0.225 2.4 -0.1625
v -0.225 2.4 -0.5375
v -0.225 2.4 -0.1625
v -0.225 1.7 -0.6
v 0.225 1.7 -0.6
v -0.225 2.3 -0.6
v 0.225 2.3 -0.6
v 0.225 1.6 -0.1625
v 0.225 1.6 -0.5375
v -0.225 1.6 -0.1625
v -0.225 1.6 -0.5375
v -0.3 1.7 -0.5375
v -0.3 2.3 -0.5375
v -0.3 1.7 -0.1625
v -0.3 2.3 -0.1625
vn 0 0 0.5
vn 0 0.8 0
vn 0 0 -0.5
vn 0 -0.8 0
vn 0.3464102 0.4618802 -0.2886752
vn 0.4242641 0 -0.3535534
vn 0 -0.5656855 -0.3535534
vn 0.3464102 -0.4618802 -0.2886751
vn 0.4242641 -0.5656855 0
vn 0.4242642 0.5656853 0
vn 0.3464102 0.4618802 0.2886752
vn 0.4242641 0 0.3535534
vn 0.3464102 -0.4618802 0.2886751
vn 0 0.5656853 0.3535534
vn -0.3464102 0.4618802 0.2886752
vn -0.4242641 -0.5656855 0
vn 0 -0.5656855 0.3535534
vn -0.4242641 0 0.3535534
vn -0.3464102 -0.4618802 0.2886751
vn -0.3464102 -0.4618802 -0.2886751
vn -0.4242641 0 -0.3535534
vn -0.4242642 0.5656853 0
vn 0 0.5656853 -0.3535534
vn -0.3464102 0.4618802 -0.2886752
vt 0.225 1.7
vt -0.225 1.7
vt 0.225 2.3
vt -0.225 2.3
vt 0.5375 2.3
vt 0.5375 1.7
vt 0.1625 2.3
vt 0.1625 1.7
vt -0.225 -0.5375
vt -0.225 -0.1625
vt 0.225 -0.5375
vt 0.225 -0.1625
vt -0.225 0.1625
vt -0.225 0.5375
vt 0.225 0.1625
vt 0.225 0.5375
vt -0.5375 1.7
vt -0.5375 2.3
vt -0.1625 1.7
vt -0.1625 2.3
vt -0.3 2.3
vt -0.225 2.4
vt -0.3 1.7
vt -0.225 1.6
vt 0.225 1.6
vt 0.1625 1.6
vt 0.5375 1.6
vt 0.5375 2.4
vt 0.1625 2.4
vt 0.3 2.3
vt 0.225 2.4
vt 0.3 1.7
vt -0.5375 1.6
vt -0.1625 1.6
vt -0.5375 2.4
vt -0.1625 2.4

usemtl _defaultMat (Instance) (Instance)
usemap _defaultMat (Instance) (Instance)
f 99/138/75 98/137/75 97/136/75
f 98/137/75 99/138/75 100/139/75
f 103/142/50 102/141/50 101/140/50
f 102/141/50 103/142/50 104/143/50
f 107/146/76 106/145/76 105/144/76
f 106/145/76 107/146/76 108/147/76
f 111/138/77 110/137/77 109/136/77
f 110/137/77 111/138/77 112/139/77
f 115/150/78 114/149/78 113/148/78
f 114/149/78 115/150/78 116/151/78
f 119/154/54 118/153/54 117/152/54
f 118/153/54 119/154/54 120/155/54
f 105/157/79 101/156/79 112/139/79
f 112/139/80 102/158/80 110/137/80
f 102/158/80 112/139/80 101/156/80
f 116/160/81 110/137/81 114/159/81
f 110/137/81 116/160/81 109/136/81
f 110/137/82 102/158/82 114/159/82
f 113/161/83 102/141/83 104/143/83
f 102/141/83 113/161/83 114/162/83
f 105/163/84 103/142/84 101/140/84
f 103/142/84 105/163/84 106/164/84
f 106/166/85 99/138/85 103/165/85
f 103/165/86 97/136/86 104/167/86
f 97/136/86 103/165/86 99/138/86
f 97/136/87 113/160/87 104/167/87
f 106/166/88 100/139/88 99/138/88
f 100/139/88 106/166/88 108/157/88
f 100/139/89 108/157/89 120/156/89
f 115/169/90 117/152/90 116/168/90
f 117/152/90 115/169/90 119/154/90
f 97/136/91 115/159/91 113/160/91
f 115/159/91 97/136/91 98/137/91
f 98/137/92 120/156/92 119/158/92
f 120/156/92 98/137/92 100/139/92
f 98/137/93 119/158/93 115/159/93
f 117/167/94 109/136/94 116/160/94
f 117/167/95 111/138/95 109/136/95
f 111/138/95 117/167/95 118/165/95
f 120/155/96 107/170/96 118/153/96
f 107/170/96 120/155/96 108/171/96
f 111/138/97 105/157/97 112/139/97
f 105/157/97 111/138/97 107/166/97
f 107/166/98 111/138/98 118/165/98
v 0.225 1.7 0.6
v -0.225 1.7 0.6
v 0.225 2.3 0.6
v -0.225 2.3 0.6
v 0.3 2.3 0.1625
v 0.3 1.7 0.1625
v 0.3 2.3 0.5375
v 0.3 1.7 0.5375
v 0.225 2.4 0.1625
v 0.225 2.4 0.5375
v -0.225 2.4 0.1625
v -0.225 2.4 0.5375
v -0.225 1.7 0.09999999
v 0.225 1.7 0.09999999
v -0.225 2.3 0.09999999
v 0.225 2.3 0.09999999
v 0.225 1.6 0.5375
v 0.225 1.6 0.1625
v -0.225 1.6 0.5375
v -0.225 1.6 0.1625
v -0.3 1.7 0.1625
v -0.3 2.3 0.1625
v -0.3 1.7 0.5375
v -0.3 2.3 0.5375

usemtl _defaultMat (Instance) (Instance)
usemap _defaultMat (Instance) (Instance)
f 123/138/75 122/137/75 121/136/75
f 122/137/75 123/138/75 124/139/75
f 127/153/50 126/154/50 125/155/50
f 126/154/50 127/153/50 128/152/50
f 131/150/76 130/149/76 129/148/76
f 130/149/76 131/150/76 132/151/76
f 135/138/77 134/137/77 133/136/77
f 134/137/77 135/138/77 136/139/77
f 139/146/78 138/145/78 137/144/78
f 138/145/78 139/146/78 140/147/78
f 143/141/54 142/142/54 141/143/54
f 142/142/54 143/141/54 144/140/54
f 129/157/79 125/156/79 136/139/79
f 136/139/80 126/158/80 134/137/80
f 126/158/80 136/139/80 125/156/80
f 140/160/81 134/137/81 138/159/81
f 134/137/81 140/160/81 133/136/81
f 134/137/82 126/158/82 138/159/82
f 137/168/83 126/154/83 128/152/83
f 126/154/83 137/168/83 138/169/83
f 129/171/84 127/153/84 125/155/84
f 127/153/84 129/171/84 130/170/84
f 130/166/85 123/138/85 127/165/85
f 127/165/86 121/136/86 128/167/86
f 121/136/86 127/165/86 123/138/86
f 121/136/87 137/160/87 128/167/87
f 130/166/88 124/139/88 123/138/88
f 124/139/88 130/166/88 132/157/88
f 124/139/89 132/157/89 144/156/89
f 139/162/90 141/143/90 140/161/90
f 141/143/90 139/162/90 143/141/90
f 121/136/91 139/159/91 137/160/91
f 139/159/91 121/136/91 122/137/91
f 122/137/92 144/156/92 143/158/92
f 144/156/92 122/137/92 124/139/92
f 122/137/93 143/158/93 139/159/93
f 141/167/94 133/136/94 140/160/94
f 141/167/95 135/138/95 133/136/95
f 135/138/95 141/167/95 142/165/95
f 144/140/96 131/164/96 142/142/96
f 131/164/96 144/140/96 132/163/96
f 135/138/97 129/157/97 136/139/97
f 129/157/97 135/138/97 131/166/97
f 131/166/98 135/138/98 142/165/98
