# Made using Asset Forge (www.assetforge.io) version 1.3 

mtllib Sword.mtl 

v 0 -3.104219E-14 -0.05952521
v 0.1242834 -2.822017E-15 1.032333E-13
v -7.219114E-16 0.09090909 -0.09524033
v 0.1988534 0.09090909 1.516014E-14
v -0.1242834 -2.822017E-15 1.035943E-13
v -0.1988534 0.09090909 1.516014E-14
v 0 0.1818182 -0.05952521
v -0.1242834 0.1818182 -7.25521E-14
v 0.1242834 0.1818182 -7.25521E-14
v 0 2.441373E-14 0.05952521
v -7.219114E-16 0.09090909 0.09524033
v 0 0.1818182 0.05952521
v -0.1242834 0.4 -2.967056E-13
v 0 0.4 0.05952521
v 0.1242834 0.4 -2.967056E-13
v 0 0.4 -0.05952521
vn 0.4071565 -0.3339785 -0.850107
vn 0.4071566 -0.3339785 -0.850107
vn -0.4071565 -0.3339785 -0.850107
vn -0.4071566 -0.3339785 -0.850107
vn -0.4071566 0.3339785 -0.850107
vn -0.4208286 0.2255489 -0.878653
vn -0.4292037 0.1127744 -0.8961395
vn 0.4071566 0.3339785 -0.850107
vn 0.4208286 0.2255489 -0.878653
vn 0.4292037 0.1127744 -0.8961395
vn 0.4071565 -0.3339785 0.850107
vn 0.4071566 -0.3339785 0.850107
vn 0.4071566 0.3339785 0.850107
vn 0.4208286 0.2255489 0.878653
vn 0.4292037 0.1127744 0.8961395
vn -0.4071565 -0.3339785 0.850107
vn -0.4071566 -0.3339785 0.850107
vn -0.4071566 0.3339785 0.850107
vn -0.4208286 0.2255489 0.878653
vn -0.4292037 0.1127744 0.8961395
vn 0 -1 0
vn -0.4319594 0 0.9018931
vn 0.4319594 0 0.9018931
vn -0.4319594 0 -0.9018931
vn 0 1 0
vn 0.4319594 0 -0.9018931
vt 0 -3.104219E-14
vt -0.1242834 -2.822017E-15
vt 7.219114E-16 0.09090909
vt -0.1988534 0.09090909
vt 0.1242834 -2.822017E-15
vt 0.1988534 0.09090909
vt 0 0.1818182
vt 0.1242834 0.1818182
vt -0.1242834 0.1818182
vt 0 2.441373E-14
vt -7.219114E-16 0.09090909
vt -0.1988534 -1.516014E-14
vt 7.219114E-16 0.09524033
vt 7.219114E-16 -0.09524033
vt 0.1988534 -1.516014E-14
vt -0.1242834 -1.032333E-13
vt 0 0.05952521
vt 0 -0.05952521
vt 0.1242834 -1.035943E-13
vt -0.1242834 0.4
vt 0 0.4
vt 0.1242834 0.4
vt -0.1242834 -2.967056E-13
vt 0.1242834 -2.967056E-13

usemtl hilt (Instance)
usemap hilt (Instance)
f 3/3/2 2/2/2 1/1/1
f 2/2/2 3/3/2 4/4/2
f 5/5/4 3/3/4 1/1/3
f 3/3/4 5/5/4 6/6/4
f 6/6/5 7/7/6 3/3/5
f 7/7/6 6/6/5 8/8/7
f 7/7/9 4/4/8 3/3/8
f 4/4/8 7/7/9 9/9/10
f 4/6/12 10/10/12 2/5/11
f 10/10/12 4/6/12 11/11/12
f 9/8/14 11/11/13 4/6/13
f 11/11/13 9/8/14 12/7/15
f 10/10/17 6/4/17 5/2/16
f 6/4/17 10/10/17 11/11/17
f 11/11/18 8/9/19 6/4/18
f 8/9/19 11/11/18 12/7/20
f 11/14/21 3/13/21 4/12/21
f 3/13/21 11/14/21 6/15/21
f 10/18/21 1/17/21 2/16/21
f 1/17/21 10/18/21 5/19/21

usemtl handle (Instance)
usemap handle (Instance)
f 12/7/20 13/20/22 8/9/19
f 13/20/22 12/7/20 14/21/22
f 15/22/23 12/7/15 9/8/14
f 12/7/15 15/22/23 14/21/23
f 8/8/7 16/21/24 7/7/6
f 16/21/24 8/8/7 13/22/24
f 16/18/25 14/17/25 15/23/25
f 14/17/25 16/18/25 13/24/25
f 16/21/26 9/9/10 7/7/9
f 9/9/10 16/21/26 15/20/26
v 0.24 0.4 0.065
v 0.24 0.4 -0.065
v 0.2 0.4 0.117
v 0.2 0.4 -0.117
v -0.2 0.4 0.117
v -0.2 0.4 -0.117
v -0.24 0.4 0.065
v -0.24 0.4 -0.065
v 0.2 0.5 0.117
v -0.2 0.5 0.117
v -0.2 0.5 -0.117
v 0.2 0.5 -0.117
v 0.24 0.5 -0.065
v 0.24 0.5 0.065
v -0.24 0.5 -0.065
v -0.24 0.5 0.065
vn 0 0 1
vn 0 0 -1
vn 1 0 0
vn 0.7926239 0 -0.6097108
vn -0.7926239 0 -0.6097108
vn -1 0 0
vn -0.7926239 0 0.6097108
vn 0.7926239 0 0.6097108
vt -0.24 -0.065
vt -0.24 0.065
vt -0.2 -0.117
vt -0.2 0.117
vt 0.2 -0.117
vt 0.2 0.117
vt 0.24 -0.065
vt 0.24 0.065
vt 0.2 0.4
vt -0.2 0.4
vt 0.2 0.5
vt -0.2 0.5
vt 0.065 0.5
vt 0.065 0.4
vt -0.065 0.5
vt -0.065 0.4
vt 0.117 0.5
vt 0.117 0.4
vt -0.117 0.5
vt -0.117 0.4

usemtl hilt (Instance) (Instance)
usemap hilt (Instance) (Instance)
f 19/27/21 18/26/21 17/25/21
f 18/26/21 19/27/21 20/28/21
f 20/28/21 19/27/21 21/29/21
f 20/28/21 21/29/21 22/30/21
f 22/30/21 21/29/21 23/31/21
f 22/30/21 23/31/21 24/32/21
f 25/35/27 21/34/27 19/33/27
f 21/34/27 25/35/27 26/36/27
f 27/35/28 20/34/28 22/33/28
f 20/34/28 27/35/28 28/36/28
f 30/39/29 18/38/29 29/37/29
f 18/38/29 30/39/29 17/40/29
f 29/37/30 20/42/30 28/41/30
f 20/42/30 29/37/30 18/38/30
f 28/27/25 30/26/25 29/25/25
f 30/26/25 28/27/25 25/28/25
f 25/28/25 28/27/25 27/29/25
f 25/28/25 27/29/25 26/30/25
f 26/30/25 27/29/25 31/31/25
f 26/30/25 31/31/25 32/32/25
f 22/44/31 31/39/31 27/43/31
f 31/39/31 22/44/31 24/40/31
f 24/40/32 32/37/32 31/39/32
f 32/37/32 24/40/32 23/38/32
f 23/38/33 26/41/33 32/37/33
f 26/41/33 23/38/33 21/42/33
f 25/43/34 17/40/34 30/39/34
f 17/40/34 25/43/34 19/44/34
v 0.19 0.5 1.068429E-13
v 0.095 0.5 -0.0476
v 0.095 0.5 0.0476
v 0 0.5 0.09519999
v 0 0.5 -0.09519999
v -0.095 0.5 0.0476
v -0.095 0.5 -0.0476
v -0.19 0.5 1.068429E-13
v -0.095 1.325 0.0476
v -0.19 1.325 -7.024198E-13
v 0 1.6 -9.327095E-13
v 0.19 1.325 -7.024198E-13
v 0.095 1.325 0.0476
v 0.095 1.325 -0.0476
v -0.095 1.325 -0.0476
v 0 1.325 -0.09519999
v 0 1.325 0.09519999
vn 0 -1.1 0
vn -0.4441296 0.1436585 0.8863932
vn -0.4453107 0.119599 0.8887503
vn -0.4240635 0.3545171 0.8463453
vn -0.4479663 0 0.8940504
vn 0.4453107 0.119599 0.8887503
vn 0.4441296 0.1436585 0.8863932
vn 0.4240635 0.3545171 0.8463453
vn 0.4479663 0 0.8940504
vn 0.4441296 0.1436585 -0.8863932
vn 0.4419502 0.1796715 -0.8820435
vn 0.4240635 0.3545171 -0.8463453
vn 0.4479663 0 -0.8940504
vn -0.4419502 0.1796715 -0.8820435
vn -0.4441296 0.1436585 -0.8863932
vn -0.4240635 0.3545171 -0.8463453
vn -0.4479663 0 -0.8940504
vn 0.4453107 0.119599 -0.8887503
vn -0.4453107 0.119599 -0.8887503
vn -0.4419502 0.1796715 0.8820435
vn 0.4419502 0.1796715 0.8820435
vt -0.19 -1.068429E-13
vt -0.095 0.0476
vt -0.095 -0.0476
vt 0 -0.09519999
vt 0 0.09519999
vt 0.095 -0.0476
vt 0.095 0.0476
vt 0.19 -1.068429E-13
vt -0.095 1.325
vt -0.19 1.325
vt 0 1.6
vt -0.19 0.5
vt -0.095 0.5
vt 0.19 1.325
vt 0.095 1.325
vt 0.19 0.5
vt 0.095 0.5
vt 0 1.325
vt 0 0.5

usemtl blade (Instance) (Instance)
usemap blade (Instance) (Instance)
f 35/47/35 34/46/35 33/45/35
f 34/46/35 35/47/35 36/48/35
f 34/46/35 36/48/35 37/49/35
f 37/49/35 36/48/35 38/50/35
f 37/49/35 38/50/35 39/51/35
f 39/51/35 38/50/35 40/52/35
f 43/55/38 42/54/37 41/53/36
f 38/57/39 42/54/37 40/56/39
f 42/54/37 38/57/39 41/53/36
f 43/55/42 45/59/41 44/58/40
f 44/58/40 35/61/43 33/60/43
f 35/61/43 44/58/40 45/59/41
f 43/55/46 44/54/45 46/53/44
f 46/53/44 33/56/47 34/57/47
f 33/56/47 46/53/44 44/54/45
f 43/55/50 47/59/49 42/58/48
f 40/60/51 47/59/49 39/61/51
f 47/59/49 40/60/51 42/58/48

usemtl bladeSecondary (Instance)
usemap bladeSecondary (Instance)
f 43/55/46 46/53/44 48/62/52
f 48/62/52 34/57/47 37/63/47
f 34/57/47 48/62/52 46/53/44
f 39/61/51 48/62/53 37/63/51
f 48/62/53 39/61/51 47/59/49
f 43/55/50 48/62/53 47/59/49
f 36/63/39 41/53/36 38/57/39
f 41/53/36 36/63/39 49/62/54
f 43/55/38 41/53/36 49/62/54
f 43/55/42 49/62/55 45/59/41
f 45/59/41 36/63/43 35/61/43
f 36/63/43 45/59/41 49/62/55
